v 0 0.9808 -0.1951
v 0 0.9239 -0.3827
v 0 0.8315 -0.5556
v 0 0.7071 -0.7071
v 0 0.5556 -0.8315
v 0 0.3827 -0.9239
v 0 0.1951 -0.9808
v 0 -0.5556 -0.8315
v 0 -0.7071 -0.7071
v 0 -0.8315 -0.5556
v 0.03806 0.9808 -0.1913
v 0.07466 0.9239 -0.3753
v 0.1084 0.8315 -0.5449
v 0.138 0.7071 -0.6935
v 0.1622 0.5556 -0.8155
v 0.1802 0.3827 -0.9061
v 0.1913 0.1951 -0.9619
v 0.1951 0 -0.9808
v 0.1913 -0.1951 -0.9619
v 0.1802 -0.3827 -0.9061
v 0.1622 -0.5556 -0.8155
v 0.138 -0.7071 -0.6935
v 0.1084 -0.8315 -0.5449
v 0.07466 -0.9239 -0.3753
v 0.03806 -0.9808 -0.1913
v 0.07466 0.9808 -0.1802
v 0.1464 0.9239 -0.3536
v 0.2126 0.8315 -0.5133
v 0.2706 0.7071 -0.6533
v 0.3182 0.5556 -0.7682
v 0.3536 0.3827 -0.8536
v 0.3753 0.1951 -0.9061
v 0.3827 0 -0.9239
v 0.3753 -0.1951 -0.9061
v 0.3536 -0.3827 -0.8536
v 0.3182 -0.5556 -0.7682
v 0.2706 -0.7071 -0.6533
v 0.2126 -0.8315 -0.5133
v 0.1464 -0.9239 -0.3536
v 0.07466 -0.9808 -0.1802
v 0.1084 0.9808 -0.1622
v 0.2126 0.9239 -0.3182
v 0.3087 0.8315 -0.4619
v 0.3928 0.7071 -0.5879
v 0.4619 0.5556 -0.6913
v 0.5133 0.3827 -0.7682
v 0.5449 0.1951 -0.8155
v 0.5556 0 -0.8315
v 0.5449 -0.1951 -0.8155
v 0.5133 -0.3827 -0.7682
v 0.4619 -0.5556 -0.6913
v 0.3928 -0.7071 -0.5879
v 0.3087 -0.8315 -0.4619
v 0.2126 -0.9239 -0.3182
v 0.1084 -0.9808 -0.1622
v 0.138 0.9808 -0.138
v 0.2706 0.9239 -0.2706
v 0.3928 0.8315 -0.3928
v 0.5 0.7071 -0.5
v 0.5879 0.5556 -0.5879
v 0.6533 0.3827 -0.6533
v 0.6935 0.1951 -0.6935
v 0.7071 0 -0.7071
v 0.6935 -0.1951 -0.6935
v 0.6533 -0.3827 -0.6533
v 0.5879 -0.5556 -0.5879
v 0.5 -0.7071 -0.5
v 0.3928 -0.8315 -0.3928
v 0.2706 -0.9239 -0.2706
v 0.138 -0.9808 -0.138
v 0.1622 0.9808 -0.1084
v 0.3182 0.9239 -0.2126
v 0.4619 0.8315 -0.3087
v 0.5879 0.7071 -0.3928
v 0.6913 0.5556 -0.4619
v 0.7682 0.3827 -0.5133
v 0.8155 0.1951 -0.5449
v 0.8315 0 -0.5556
v 0.8155 -0.1951 -0.5449
v 0.7682 -0.3827 -0.5133
v 0.6913 -0.5556 -0.4619
v 0.5879 -0.7071 -0.3928
v 0.4619 -0.8315 -0.3087
v 0.3182 -0.9239 -0.2126
v 0.1622 -0.9808 -0.1084
v 0.1802 0.9808 -0.07466
v 0.3536 0.9239 -0.1464
v 0.5133 0.8315 -0.2126
v 0.6533 0.7071 -0.2706
v 0.7682 0.5556 -0.3182
v 0.8536 0.3827 -0.3536
v 0.9061 0.1951 -0.3753
v 0.9239 0 -0.3827
v 0.9061 -0.1951 -0.3753
v 0.8536 -0.3827 -0.3536
v 0.7682 -0.5556 -0.3182
v 0.6533 -0.7071 -0.2706
v 0.5133 -0.8315 -0.2126
v 0.3536 -0.9239 -0.1464
v 0.1802 -0.9808 -0.07466
v 0.1913 0.9808 -0.03806
v 0.3753 0.9239 -0.07466
v 0.5449 0.8315 -0.1084
v 0.6935 0.7071 -0.138
v 0.8155 0.5556 -0.1622
v 0.9061 0.3827 -0.1802
v 0.9619 0.1951 -0.1913
v 0.9808 0 -0.1951
v 0.9619 -0.1951 -0.1913
v 0.9061 -0.3827 -0.1802
v 0.8155 -0.5556 -0.1622
v 0.6935 -0.7071 -0.138
v 0.5449 -0.8315 -0.1084
v 0.3753 -0.9239 -0.07466
v 0.1913 -0.9808 -0.03806
v 0.1951 0.9808 0
v 0.3827 0.9239 0
v 0.5556 0.8315 0
v 0.7071 0.7071 0
v 0.8315 0.5556 0
v 0.9239 0.3827 0
v 0.9808 0.1951 0
v 1 0 0
v 0.9808 -0.1951 0
v 0.9239 -0.3827 0
v 0.8315 -0.5556 0
v 0.7071 -0.7071 0
v 0.5556 -0.8315 0
v 0.3827 -0.9239 0
v 0.1951 -0.9808 0
v 0.1913 0.9808 0.03806
v 0.3753 0.9239 0.07466
v 0.5449 0.8315 0.1084
v 0.6935 0.7071 0.138
v 0.8155 0.5556 0.1622
v 0.9061 0.3827 0.1802
v 0.9619 0.1951 0.1913
v 0.9808 0 0.1951
v 0.9619 -0.1951 0.1913
v 0.9061 -0.3827 0.1802
v 0.8155 -0.5556 0.1622
v 0.6935 -0.7071 0.138
v 0.5449 -0.8315 0.1084
v 0.3753 -0.9239 0.07466
v 0.1913 -0.9808 0.03806
v 0.1802 0.9808 0.07466
v 0.3536 0.9239 0.1464
v 0.5133 0.8315 0.2126
v 0.6533 0.7071 0.2706
v 0.7682 0.5556 0.3182
v 0.8536 0.3827 0.3536
v 0.9061 0.1951 0.3753
v 0.9239 0 0.3827
v 0.9061 -0.1951 0.3753
v 0.8536 -0.3827 0.3536
v 0.7682 -0.5556 0.3182
v 0.6533 -0.7071 0.2706
v 0.5133 -0.8315 0.2126
v 0.3536 -0.9239 0.1464
v 0.1802 -0.9808 0.07466
v 0.1622 0.9808 0.1084
v 0.3182 0.9239 0.2126
v 0.4619 0.8315 0.3087
v 0.5879 0.7071 0.3928
v 0.6913 0.5556 0.4619
v 0.7682 0.3827 0.5133
v 0.8155 0.1951 0.5449
v 0.8315 0 0.5556
v 0.8155 -0.1951 0.5449
v 0.7682 -0.3827 0.5133
v 0.6913 -0.5556 0.4619
v 0.5879 -0.7071 0.3928
v 0.4619 -0.8315 0.3087
v 0.3182 -0.9239 0.2126
v 0.1622 -0.9808 0.1084
v 0.138 0.9808 0.138
v 0.2706 0.9239 0.2706
v 0.3928 0.8315 0.3928
v 0.5 0.7071 0.5
v 0.5879 0.5556 0.5879
v 0.6533 0.3827 0.6533
v 0.6935 0.1951 0.6935
v 0.7071 0 0.7071
v 0.6935 -0.1951 0.6935
v 0.6533 -0.3827 0.6533
v 0.5879 -0.5556 0.5879
v 0.5 -0.7071 0.5
v 0.3928 -0.8315 0.3928
v 0.2706 -0.9239 0.2706
v 0.138 -0.9808 0.138
v 0.1084 0.9808 0.1622
v 0.2126 0.9239 0.3182
v 0.3087 0.8315 0.4619
v 0.3928 0.7071 0.5879
v 0.4619 0.5556 0.6913
v 0.5133 0.3827 0.7682
v 0.5449 0.1951 0.8155
v 0.5556 0 0.8315
v 0.5449 -0.1951 0.8155
v 0.5133 -0.3827 0.7682
v 0.4619 -0.5556 0.6913
v 0.3928 -0.7071 0.5879
v 0.3087 -0.8315 0.4619
v 0.2126 -0.9239 0.3182
v 0.1084 -0.9808 0.1622
v 0.07466 0.9808 0.1802
v 0.1464 0.9239 0.3536
v 0.2126 0.8315 0.5133
v 0.2706 0.7071 0.6533
v 0.3182 0.5556 0.7682
v 0.3536 0.3827 0.8536
v 0.3753 0.1951 0.9061
v 0.3827 0 0.9239
v 0.3753 -0.1951 0.9061
v 0.3536 -0.3827 0.8536
v 0.3182 -0.5556 0.7682
v 0.2706 -0.7071 0.6533
v 0.2126 -0.8315 0.5133
v 0.1464 -0.9239 0.3536
v 0.07466 -0.9808 0.1802
v 0.03806 0.9808 0.1913
v 0.07466 0.9239 0.3753
v 0.1084 0.8315 0.5449
v 0.138 0.7071 0.6935
v 0.1622 0.5556 0.8155
v 0.1802 0.3827 0.9061
v 0.1913 0.1951 0.9619
v 0.1951 0 0.9808
v 0.1913 -0.1951 0.9619
v 0.1802 -0.3827 0.9061
v 0.1622 -0.5556 0.8155
v 0.138 -0.7071 0.6935
v 0.1084 -0.8315 0.5449
v 0.07466 -0.9239 0.3753
v 0.03806 -0.9808 0.1913
v 0 0.9808 0.1951
v 0 0.9239 0.3827
v 0 0.8315 0.5556
v 0 0.7071 0.7071
v 0 0.5556 0.8315
v 0 0.3827 0.9239
v 0 0.1951 0.9808
v 0 0 1
v 0 -0.1951 0.9808
v 0 -0.3827 0.9239
v 0 -0.5556 0.8315
v 0 -0.7071 0.7071
v 0 -0.8315 0.5556
v 0 -0.9239 0.3827
v 0 -0.9808 0.1951
v -0.03806 0.9808 0.1913
v -0.07466 0.9239 0.3753
v -0.1084 0.8315 0.5449
v -0.138 0.7071 0.6935
v -0.1622 0.5556 0.8155
v -0.1802 0.3827 0.9061
v -0.1913 0.1951 0.9619
v -0.1951 0 0.9808
v -0.1913 -0.1951 0.9619
v -0.1802 -0.3827 0.9061
v -0.1622 -0.5556 0.8155
v -0.138 -0.7071 0.6935
v -0.1084 -0.8315 0.5449
v -0.07466 -0.9239 0.3753
v -0.03806 -0.9808 0.1913
v -0.07466 0.9808 0.1802
v -0.1464 0.9239 0.3536
v -0.2126 0.8315 0.5133
v -0.2706 0.7071 0.6533
v -0.3182 0.5556 0.7682
v -0.3536 0.3827 0.8536
v -0.3753 0.1951 0.9061
v -0.3827 0 0.9239
v -0.3753 -0.1951 0.9061
v -0.3536 -0.3827 0.8536
v -0.3182 -0.5556 0.7682
v -0.2706 -0.7071 0.6533
v -0.2126 -0.8315 0.5133
v -0.1464 -0.9239 0.3536
v -0.07466 -0.9808 0.1802
v -0.1084 0.9808 0.1622
v -0.2126 0.9239 0.3182
v -0.3087 0.8315 0.4619
v -0.3928 0.7071 0.5879
v -0.4619 0.5556 0.6913
v -0.5133 0.3827 0.7682
v -0.5449 0.1951 0.8155
v -0.5556 0 0.8315
v -0.5449 -0.1951 0.8155
v -0.5133 -0.3827 0.7682
v -0.4619 -0.5556 0.6913
v -0.3928 -0.7071 0.5879
v -0.3087 -0.8315 0.4619
v -0.2126 -0.9239 0.3182
v -0.1084 -0.9808 0.1622
v -0.138 0.9808 0.138
v -0.2706 0.9239 0.2706
v -0.3928 0.8315 0.3928
v -0.5 0.7071 0.5
v -0.5879 0.5556 0.5879
v -0.6533 0.3827 0.6533
v -0.6935 0.1951 0.6935
v -0.7071 0 0.7071
v -0.6935 -0.1951 0.6935
v -0.6533 -0.3827 0.6533
v -0.5879 -0.5556 0.5879
v -0.5 -0.7071 0.5
v -0.3928 -0.8315 0.3928
v -0.2706 -0.9239 0.2706
v -0.138 -0.9808 0.138
v -0.1622 0.9808 0.1084
v -0.3182 0.9239 0.2126
v -0.4619 0.8315 0.3087
v -0.5879 0.7071 0.3928
v -0.6913 0.5556 0.4619
v -0.7682 0.3827 0.5133
v -0.8155 0.1951 0.5449
v -0.8315 0 0.5556
v -0.8155 -0.1951 0.5449
v -0.7682 -0.3827 0.5133
v -0.6913 -0.5556 0.4619
v -0.5879 -0.7071 0.3928
v -0.4619 -0.8315 0.3087
v -0.3182 -0.9239 0.2126
v -0.1622 -0.9808 0.1084
v 0 1 0
v -0.1802 0.9808 0.07466
v -0.3536 0.9239 0.1464
v -0.5133 0.8315 0.2126
v -0.6533 0.7071 0.2706
v -0.7682 0.5556 0.3182
v -0.8536 0.3827 0.3536
v -0.9061 0.1951 0.3753
v -0.9239 0 0.3827
v -0.9061 -0.1951 0.3753
v -0.8536 -0.3827 0.3536
v -0.7682 -0.5556 0.3182
v -0.6533 -0.7071 0.2706
v -0.5133 -0.8315 0.2126
v -0.3536 -0.9239 0.1464
v -0.1802 -0.9808 0.07466
v -0.1913 0.9808 0.03806
v -0.3753 0.9239 0.07466
v -0.5449 0.8315 0.1084
v -0.6935 0.7071 0.138
v -0.8155 0.5556 0.1622
v -0.9061 0.3827 0.1802
v -0.9619 0.1951 0.1913
v -0.9808 0 0.1951
v -0.9619 -0.1951 0.1913
v -0.9061 -0.3827 0.1802
v -0.8155 -0.5556 0.1622
v -0.6935 -0.7071 0.138
v -0.5449 -0.8315 0.1084
v -0.3753 -0.9239 0.07466
v -0.1913 -0.9808 0.03806
v -0.1951 0.9808 0
v -0.3827 0.9239 0
v -0.5556 0.8315 0
v -0.7071 0.7071 0
v -0.8315 0.5556 0
v -0.9239 0.3827 0
v -0.9808 0.1951 0
v -1 0 0
v -0.9808 -0.1951 0
v -0.9239 -0.3827 0
v -0.8315 -0.5556 0
v -0.7071 -0.7071 0
v -0.5556 -0.8315 0
v -0.3827 -0.9239 0
v -0.1951 -0.9808 0
v -0.1913 0.9808 -0.03806
v -0.3753 0.9239 -0.07466
v -0.5449 0.8315 -0.1084
v -0.6935 0.7071 -0.138
v -0.8155 0.5556 -0.1622
v -0.9061 0.3827 -0.1802
v -0.9619 0.1951 -0.1913
v -0.9808 0 -0.1951
v -0.9619 -0.1951 -0.1913
v -0.9061 -0.3827 -0.1802
v -0.8155 -0.5556 -0.1622
v -0.6935 -0.7071 -0.138
v -0.5449 -0.8315 -0.1084
v -0.3753 -0.9239 -0.07466
v -0.1913 -0.9808 -0.03806
v -0.1802 0.9808 -0.07466
v -0.3536 0.9239 -0.1464
v -0.5133 0.8315 -0.2126
v -0.6533 0.7071 -0.2706
v -0.7682 0.5556 -0.3182
v -0.8536 0.3827 -0.3536
v -0.9061 0.1951 -0.3753
v -0.9239 0 -0.3827
v -0.9061 -0.1951 -0.3753
v -0.8536 -0.3827 -0.3536
v -0.7682 -0.5556 -0.3182
v -0.6533 -0.7071 -0.2706
v -0.5133 -0.8315 -0.2126
v -0.3536 -0.9239 -0.1464
v -0.1802 -0.9808 -0.07466
v -0.1622 0.9808 -0.1084
v -0.3182 0.9239 -0.2126
v -0.4619 0.8315 -0.3087
v -0.5879 0.7071 -0.3928
v -0.6913 0.5556 -0.4619
v -0.7682 0.3827 -0.5133
v -0.8155 0.1951 -0.5449
v -0.8315 0 -0.5556
v -0.8155 -0.1951 -0.5449
v -0.7682 -0.3827 -0.5133
v -0.6913 -0.5556 -0.4619
v -0.5879 -0.7071 -0.3928
v -0.4619 -0.8315 -0.3087
v -0.3182 -0.9239 -0.2126
v -0.1622 -0.9808 -0.1084
v -0.138 0.9808 -0.138
v -0.2706 0.9239 -0.2706
v -0.3928 0.8315 -0.3928
v -0.5 0.7071 -0.5
v -0.5879 0.5556 -0.5879
v -0.6533 0.3827 -0.6533
v -0.6935 0.1951 -0.6935
v -0.7071 0 -0.7071
v -0.6935 -0.1951 -0.6935
v -0.6533 -0.3827 -0.6533
v -0.5879 -0.5556 -0.5879
v -0.5 -0.7071 -0.5
v -0.3928 -0.8315 -0.3928
v -0.2706 -0.9239 -0.2706
v -0.138 -0.9808 -0.138
v -0.1084 0.9808 -0.1622
v -0.2126 0.9239 -0.3182
v -0.3087 0.8315 -0.4619
v -0.3928 0.7071 -0.5879
v -0.4619 0.5556 -0.6913
v -0.5133 0.3827 -0.7682
v -0.5449 0.1951 -0.8155
v -0.5556 0 -0.8315
v -0.5449 -0.1951 -0.8155
v -0.5133 -0.3827 -0.7682
v -0.4619 -0.5556 -0.6913
v -0.3928 -0.7071 -0.5879
v -0.3087 -0.8315 -0.4619
v -0.2126 -0.9239 -0.3182
v -0.1084 -0.9808 -0.1622
v -0.07466 0.9808 -0.1802
v -0.1464 0.9239 -0.3536
v -0.2126 0.8315 -0.5133
v -0.2706 0.7071 -0.6533
v -0.3182 0.5556 -0.7682
v -0.3536 0.3827 -0.8536
v -0.3753 0.1951 -0.9061
v -0.3827 0 -0.9239
v -0.3753 -0.1951 -0.9061
v -0.3536 -0.3827 -0.8536
v -0.3182 -0.5556 -0.7682
v -0.2706 -0.7071 -0.6533
v -0.2126 -0.8315 -0.5133
v -0.1464 -0.9239 -0.3536
v -0.07466 -0.9808 -0.1802
v -0.03806 0.9808 -0.1913
v -0.07466 0.9239 -0.3753
v -0.1084 0.8315 -0.5449
v -0.138 0.7071 -0.6935
v -0.1622 0.5556 -0.8155
v -0.1802 0.3827 -0.9061
v -0.1913 0.1951 -0.9619
v -0.1951 0 -0.9808
v -0.1913 -0.1951 -0.9619
v -0.1802 -0.3827 -0.9061
v -0.1622 -0.5556 -0.8155
v -0.138 -0.7071 -0.6935
v -0.1084 -0.8315 -0.5449
v -0.07466 -0.9239 -0.3753
v -0.03806 -0.9808 -0.1913
v 1e-06 0 -1
v 0 -0.1951 -0.9808
v 0 -0.3827 -0.9239
v 0 -0.9239 -0.3827
v 0 -0.9808 -0.1951
v 0 -1 0
v -0.1084 -0.8315 -0.5449
v 0 -0.8315 -0.5556
v 0 -0.9239 -0.3827
v 0 -0.8726 -0.4786
v -0.006595 -0.8715 -0.4801
v -0.02526 -0.8701 -0.4807
v -0.04403 -0.8682 -0.4825
v -0.06456 -0.8688 -0.4793
v -0.1084 0.8315 -0.5449
v -0.07466 0.9239 -0.3753
v 0 0.9239 -0.3827
v -0.09058 0.8802 -0.4554
v -0.04972 0.8815 -0.4571
v -0.1464 0.9239 -0.3536
v -0.07466 0.9239 -0.3753
v -0.1084 0.8315 -0.5449
v -0.1268 0.8761 -0.4526
v -0.09058 0.8802 -0.4554
v -0.2126 -0.8315 -0.5133
v -0.1084 -0.8315 -0.5449
v -0.07466 -0.9239 -0.3753
v -0.1611 -0.8656 -0.4625
v -0.09441 -0.8698 -0.4746
v -0.1616 -0.8656 -0.4623
v -0.3087 -0.8315 -0.4619
v -0.2126 -0.8315 -0.5133
v -0.1464 -0.9239 -0.3536
v -0.2573 -0.8607 -0.4276
v -0.2104 -0.864 -0.4458
v -0.1966 -0.8649 -0.4512
v -0.188 -0.8658 -0.454
v -0.2126 0.9239 -0.3182
v -0.1464 0.9239 -0.3536
v -0.2126 0.8315 -0.5133
v -0.1855 0.8693 -0.4479
v -0.1954 0.8673 -0.4468
v -0.2126 0.8656 -0.4412
v -0.3928 0.8315 -0.3928
v -0.2706 0.9239 -0.2706
v -0.2126 0.9239 -0.3182
v -0.3708 0.8482 -0.3708
v -0.357 0.8498 -0.378
v -0.3928 -0.8315 -0.3928
v -0.3087 -0.8315 -0.4619
v -0.2126 -0.9239 -0.3182
v -0.3655 -0.8455 -0.3815
v -0.2799 -0.8592 -0.4189
v -0.4619 -0.8315 -0.3087
v -0.5879 -0.7071 -0.3928
v -0.5 -0.7071 -0.5
v -0.4938 -0.8001 -0.3299
v -0.4683 -0.8108 -0.3404
v -0.4619 0.8315 -0.3087
v -0.3928 0.8315 -0.3928
v -0.5 0.7071 -0.5
v -0.4457 0.8315 -0.3284
v -0.4639 0.8251 -0.3184
v -0.3182 0.9239 -0.2126
v -0.2706 0.9239 -0.2706
v -0.3928 0.8315 -0.3928
v -0.3812 0.8459 -0.3648
v -0.3708 0.8482 -0.3708
v -0.4619 -0.8315 -0.3087
v -0.3928 -0.8315 -0.3928
v -0.2706 -0.9239 -0.2706
v -0.4056 -0.8356 -0.3653
v -0.3769 -0.8436 -0.3769
v -0.4194 -0.8315 -0.3605
v -0.5133 -0.8315 -0.2126
v -0.6533 -0.7071 -0.2706
v -0.5879 -0.7071 -0.3928
v -0.5756 -0.7529 -0.2982
v -0.5518 -0.7673 -0.3057
v -0.6474 -0.7071 -0.2817
v -0.5133 0.8315 -0.2126
v -0.4619 0.8315 -0.3087
v -0.5879 0.7071 -0.3928
v -0.5384 0.7897 -0.2732
v -0.4708 0.8227 -0.3146
v -0.6935 0.7071 -0.138
v -0.6533 0.7071 -0.2706
v -0.7682 0.5556 -0.3182
v -0.6719 0.7071 -0.2092
v -0.7136 0.6663 -0.1865
v -0.8155 -0.5556 -0.1622
v -0.7682 -0.5556 -0.3182
v -0.6533 -0.7071 -0.2706
v -0.7966 -0.5582 -0.2171
v -0.7845 -0.5703 -0.2227
v -0.7995 -0.5556 -0.2151
v -0.6653 -0.6913 -0.2756
v -0.6692 -0.6872 -0.274
v -0.5449 0.8315 -0.1084
v -0.5133 0.8315 -0.2126
v -0.6533 0.7071 -0.2706
v -0.626 0.7384 -0.2298
v -0.6008 0.7556 -0.2411
v -0.5922 0.7614 -0.2453
v -1 0 0
v -0.9808 0.1951 0
v -0.9619 0.1951 -0.1913
v -0.9796 0.192 -0.0147
v -0.9844 0.1587 0
v -0.9792 0.1951 -0.01589
v -0.9808 0.1951 0
v -0.9239 0.3827 0
v -0.9061 0.3827 -0.1802
v -0.9673 0.2296 -0.03009
v -0.9246 0.3539 -0.08146
v -0.9152 0.3827 -0.08821
v -0.9691 0.2246 -0.02832
v -0.9239 0.3827 0
v -0.8315 0.5556 0
v -0.8155 0.5556 -0.1622
v -0.8353 0.524 -0.1326
v -0.8321 0.5295 -0.1346
v -0.8174 0.5556 -0.1429
v -0.7071 0.7071 0
v -0.6935 0.7071 -0.138
v -0.8155 0.5556 -0.1622
v -0.785 0.5934 -0.1562
v -0.7868 0.5914 -0.1554
v -0.8058 0.5692 -0.1476
v -0.9239 -0.3827 0
v -0.9061 -0.3827 -0.1802
v -0.8155 -0.5556 -0.1622
v -0.8581 -0.479 -0.1451
v -0.882 -0.441 -0.1082
v -0.9131 -0.3898 -0.07073
v -0.8952 -0.419 -0.09392
v -0.9178 -0.3827 -0.06164
v -0.8504 -0.489 -0.1692
v -0.9239 -0.3827 0
v -0.9808 -0.1951 0
v -0.9619 -0.1951 -0.1913
v -0.9491 -0.2995 0
v -0.9366 -0.3341 -0.02084
v -0.9306 -0.3495 -0.03382
v -0.9061 -0.3827 0.1802
v -0.9619 -0.1951 0.1913
v -0.9808 -0.1951 0
v -0.976 -0.1951 0.04864
v -0.9722 -0.2085 0.04558
v -0.9667 -0.2304 0.03393
v 0.9619 0.1951 -0.1913
v 0.9061 0.3827 -0.1802
v 0.9239 0.3827 0
v 0.9209 0.3612 -0.0961
v 0.9139 0.3827 -0.1017
v 0.9401 0.3029 -0.08135
v 0.8155 -0.5556 -0.1622
v 0.8315 -0.5556 0
v 0.7071 -0.7071 0
v 0.823 -0.5556 -0.08597
v 0.7983 -0.5843 -0.09725
v 0.7801 -0.6051 -0.1092
v 0.9061 -0.3827 -0.1802
v 0.9239 -0.3827 0
v 0.8315 -0.5556 0
v 0.886 -0.4437 -0.05314
v 0.9188 -0.385 -0.03925
v 0.92 -0.3827 -0.03893
v 0.8592 -0.4913 -0.06705
v 0.9061 -0.3827 -0.1802
v 0.9619 -0.1951 -0.1913
v 0.9808 -0.1951 0
v 0.9783 -0.1951 -0.02493
v 0.9701 -0.2219 -0.02573
v 0.9808 0 -0.1951
v 0.9619 0.1951 -0.1913
v 0.9808 0.1951 0
v 0.9808 0.147 -0.04805
v 0.9794 0.1594 -0.04958
v 0.9754 0.1951 -0.05432
v 0.7682 0.5556 -0.3182
v 0.8155 0.5556 -0.1622
v 0.9061 0.3827 -0.1802
v 0.81 0.5556 -0.1805
v 0.8317 0.5246 -0.1654
v 0.5133 -0.8315 -0.2126
v 0.6533 -0.7071 -0.2706
v 0.6935 -0.7071 -0.138
v 0.6004 -0.7632 -0.2107
v 0.6736 -0.7155 -0.1686
v 0.6859 -0.7071 -0.1632
v 0.5666 -0.7841 -0.2347
v 0.7682 0.5556 -0.3182
v 0.6533 0.7071 -0.2706
v 0.6935 0.7071 -0.138
v 0.7322 0.6286 -0.2314
v 0.6649 0.6917 -0.2754
v 0.7682 -0.5556 -0.3182
v 0.8155 -0.5556 -0.1622
v 0.6935 -0.7071 -0.138
v 0.7232 -0.6702 -0.1439
v 0.7008 -0.6924 -0.1555
v 0.3182 -0.9239 -0.2126
v 0.4619 -0.8315 -0.3087
v 0.5133 -0.8315 -0.2126
v 0.4566 -0.8349 -0.3051
v 0.4669 -0.8315 -0.2994
v 0.5879 0.7071 -0.3928
v 0.6533 0.7071 -0.2706
v 0.7682 0.5556 -0.3182
v 0.6444 0.7071 -0.2872
v 0.6649 0.6917 -0.2754
v 0.2706 -0.9239 -0.2706
v 0.3928 -0.8315 -0.3928
v 0.4619 -0.8315 -0.3087
v 0.3571 -0.8585 -0.3571
v 0.3743 -0.8545 -0.3478
v 0.4532 -0.8357 -0.3069
v 0.3928 0.8315 -0.3928
v 0.4619 0.8315 -0.3087
v 0.5879 0.7071 -0.3928
v 0.5036 0.78 -0.3563
v 0.5228 0.7714 -0.3493
v 0.3999 0.827 -0.3928
v 0.3087 -0.8315 -0.4619
v 0.3928 -0.8315 -0.3928
v 0.2706 -0.9239 -0.2706
v 0.3215 -0.8632 -0.3749
v 0.3571 -0.8585 -0.3571
v 0.2935 -0.8682 -0.3858
v 0.3087 0.8315 -0.4619
v 0.3928 0.8315 -0.3928
v 0.5 0.7071 -0.5
v 0.3882 0.8315 -0.3967
v 0.3904 0.8308 -0.3959
v 0.3947 0.8293 -0.3947
v 0.3087 0.8315 -0.4619
v 0.2126 0.9239 -0.3182
v 0.2706 0.9239 -0.2706
v 0.3006 0.8509 -0.4216
v 0.2842 0.855 -0.4254
v 0.2126 -0.8315 -0.5133
v 0.3087 -0.8315 -0.4619
v 0.2126 -0.9239 -0.3182
v 0.2652 -0.8733 -0.3969
v 0.2126 -0.8778 -0.4154
v 0.1464 0.9239 -0.3536
v 0.2126 0.9239 -0.3182
v 0.3087 0.8315 -0.4619
v 0.2842 0.855 -0.4254
v 0.2746 0.8565 -0.4272
v 0.2607 0.8588 -0.4299
v 0.07466 0.9239 -0.3753
v 0.1464 0.9239 -0.3536
v 0.2126 0.8315 -0.5133
v 0.149 0.8741 -0.4497
v 0.184 0.8714 -0.4443
v 0.1084 -0.8315 -0.5449
v 0.2126 -0.8315 -0.5133
v 0.1464 -0.9239 -0.3536
v 0.1285 -0.8804 -0.4437
v 0.1349 -0.8806 -0.4412
v 0.1772 -0.8809 -0.4279
v 0 -0.8315 -0.5556
v 0.1084 -0.8315 -0.5449
v 0.07466 -0.9239 -0.3753
v 0.06597 -0.8784 -0.4612
v 0.03579 -0.8758 -0.4692
v 0.09056 -0.8803 -0.4553
v 0 0.9239 -0.3827
v 0.07466 0.9239 -0.3753
v 0.1084 0.8315 -0.5449
v 0.09122 0.8785 -0.4586
v 0.06664 0.8787 -0.4607
v 0.0518 0.8797 -0.4602
v -0.1084 -0.8315 -0.5449
v 0 -0.9239 -0.3827
v -0.07466 -0.9239 -0.3753
v -0.06456 -0.8688 -0.4793
v -0.09441 -0.8698 -0.4746
v -0.1084 0.8315 -0.5449
v 0 0.9239 -0.3827
v 0 0.8315 -0.5556
v 0 0.883 -0.4592
v -0.04972 0.8815 -0.4571
v -0.1464 0.9239 -0.3536
v -0.1084 0.8315 -0.5449
v -0.2126 0.8315 -0.5133
v -0.1268 0.8761 -0.4526
v -0.1855 0.8693 -0.4479
v -0.2126 -0.8315 -0.5133
v -0.07466 -0.9239 -0.3753
v -0.1464 -0.9239 -0.3536
v -0.1809 -0.8659 -0.4559
v -0.1616 -0.8656 -0.4623
v -0.188 -0.8658 -0.454
v -0.3087 -0.8315 -0.4619
v -0.1464 -0.9239 -0.3536
v -0.2126 -0.9239 -0.3182
v -0.2573 -0.8607 -0.4276
v -0.2799 -0.8592 -0.4189
v -0.2126 0.9239 -0.3182
v -0.2126 0.8315 -0.5133
v -0.3087 0.8315 -0.4619
v -0.2779 0.8593 -0.4197
v -0.2798 0.8592 -0.4188
v -0.2126 0.8656 -0.4412
v -0.3928 0.8315 -0.3928
v -0.2126 0.9239 -0.3182
v -0.3087 0.8315 -0.4619
v -0.2798 0.8592 -0.4188
v -0.357 0.8498 -0.378
v -0.3928 -0.8315 -0.3928
v -0.2126 -0.9239 -0.3182
v -0.2706 -0.9239 -0.2706
v -0.3655 -0.8455 -0.3815
v -0.3737 -0.8442 -0.378
v -0.3769 -0.8436 -0.3769
v -0.4619 -0.8315 -0.3087
v -0.5 -0.7071 -0.5
v -0.3928 -0.8315 -0.3928
v -0.4683 -0.8108 -0.3404
v -0.4194 -0.8315 -0.3605
v -0.4619 0.8315 -0.3087
v -0.5 0.7071 -0.5
v -0.5879 0.7071 -0.3928
v -0.4639 0.8251 -0.3184
v -0.4708 0.8227 -0.3146
v -0.3182 0.9239 -0.2126
v -0.3928 0.8315 -0.3928
v -0.4619 0.8315 -0.3087
v -0.3974 0.8423 -0.3555
v -0.3812 0.8459 -0.3648
v -0.4455 0.8315 -0.3285
v -0.4457 0.8315 -0.3284
v -0.5133 -0.8315 -0.2126
v -0.5879 -0.7071 -0.3928
v -0.4619 -0.8315 -0.3087
v -0.5518 -0.7673 -0.3057
v -0.5322 -0.7792 -0.3118
v -0.4938 -0.8001 -0.3299
v -0.7682 -0.5556 -0.3182
v -0.5879 -0.7071 -0.3928
v -0.6533 -0.7071 -0.2706
v -0.6653 -0.6913 -0.2756
v -0.6474 -0.7071 -0.2817
v -0.5133 0.8315 -0.2126
v -0.5879 0.7071 -0.3928
v -0.6533 0.7071 -0.2706
v -0.5922 0.7614 -0.2453
v -0.5604 0.7789 -0.2597
v -0.5384 0.7897 -0.2732
v -0.6935 0.7071 -0.138
v -0.7682 0.5556 -0.3182
v -0.8155 0.5556 -0.1622
v -0.785 0.5934 -0.1562
v -0.7259 0.6543 -0.1798
v -0.7136 0.6663 -0.1865
v -0.5449 0.8315 -0.1084
v -0.6533 0.7071 -0.2706
v -0.6935 0.7071 -0.138
v -0.6719 0.7071 -0.2092
v -0.626 0.7384 -0.2298
v -0.9061 -0.3827 -0.1802
v -0.7682 -0.5556 -0.3182
v -0.8155 -0.5556 -0.1622
v -0.8497 -0.4894 -0.1706
v -0.7995 -0.5556 -0.2151
v -0.8504 -0.489 -0.1692
v -0.9808 0.1951 0
v -0.9061 0.3827 -0.1802
v -0.9619 0.1951 -0.1913
v -0.9792 0.1951 -0.01589
v -0.9747 0.2077 -0.02296
v -0.9726 0.2141 -0.02469
v -0.9691 0.2246 -0.02832
v 0.1084 -0.8315 -0.5449
v 0.1464 -0.9239 -0.3536
v 0.07466 -0.9239 -0.3753
v 0.1188 -0.88 -0.4473
v 0.09056 -0.8803 -0.4553
v 0.1285 -0.8804 -0.4437
v 0 -0.8315 -0.5556
v 0.07466 -0.9239 -0.3753
v 0 -0.9239 -0.3827
v 0 -0.8726 -0.4786
v 0.03579 -0.8758 -0.4692
v 0 0.9239 -0.3827
v 0.1084 0.8315 -0.5449
v 0 0.8315 -0.5556
v 0.01996 0.8819 -0.4593
v 0.0518 0.8797 -0.4602
v 0 0.883 -0.4592
v 0.07466 0.9239 -0.3753
v 0.2126 0.8315 -0.5133
v 0.1084 0.8315 -0.5449
v 0.09122 0.8785 -0.4586
v 0.09193 0.8784 -0.4585
v 0.149 0.8741 -0.4497
v 0.1464 0.9239 -0.3536
v 0.3087 0.8315 -0.4619
v 0.2126 0.8315 -0.5133
v 0.2607 0.8588 -0.4299
v 0.184 0.8714 -0.4443
v 0.2126 -0.8315 -0.5133
v 0.2126 -0.9239 -0.3182
v 0.1464 -0.9239 -0.3536
v 0.1772 -0.8809 -0.4279
v 0.2126 -0.8778 -0.4154
v 0.3087 0.8315 -0.4619
v 0.2706 0.9239 -0.2706
v 0.3928 0.8315 -0.3928
v 0.3183 0.8466 -0.4176
v 0.3006 0.8509 -0.4216
v 0.3882 0.8315 -0.3967
v 0.3087 -0.8315 -0.4619
v 0.2706 -0.9239 -0.2706
v 0.2126 -0.9239 -0.3182
v 0.2652 -0.8733 -0.3969
v 0.278 -0.871 -0.3919
v 0.2935 -0.8682 -0.3858
v 0.3928 0.8315 -0.3928
v 0.5879 0.7071 -0.3928
v 0.5 0.7071 -0.5
v 0.3999 0.827 -0.3928
v 0.3947 0.8293 -0.3947
v 0.2706 -0.9239 -0.2706
v 0.4619 -0.8315 -0.3087
v 0.3182 -0.9239 -0.2126
v 0.4532 -0.8357 -0.3069
v 0.4566 -0.8349 -0.3051
v 0.4619 0.8315 -0.3087
v 0.6533 0.7071 -0.2706
v 0.5879 0.7071 -0.3928
v 0.5228 0.7714 -0.3493
v 0.5656 0.7472 -0.3314
v 0.6387 0.7102 -0.2899
v 0.6444 0.7071 -0.2872
v 0.4619 -0.8315 -0.3087
v 0.6533 -0.7071 -0.2706
v 0.5133 -0.8315 -0.2126
v 0.4686 -0.8307 -0.2984
v 0.4669 -0.8315 -0.2994
v 0.5666 -0.7841 -0.2347
v 0.7682 -0.5556 -0.3182
v 0.6935 -0.7071 -0.138
v 0.6533 -0.7071 -0.2706
v 0.7008 -0.6924 -0.1555
v 0.6859 -0.7071 -0.1632
v 0.7682 0.5556 -0.3182
v 0.6935 0.7071 -0.138
v 0.8155 0.5556 -0.1622
v 0.81 0.5556 -0.1805
v 0.7896 0.5754 -0.1917
v 0.7536 0.6085 -0.2174
v 0.7322 0.6286 -0.2314
v 0.9808 0 -0.1951
v 0.9808 -0.1951 0
v 0.9619 -0.1951 -0.1913
v 0.9783 -0.1951 -0.02493
v 0.9808 -0.1698 -0.02531
v 0.9061 -0.3827 -0.1802
v 0.9808 -0.1951 0
v 0.9239 -0.3827 0
v 0.9686 -0.227 -0.02588
v 0.92 -0.3827 -0.03893
v 0.9701 -0.2219 -0.02573
v 0.9061 -0.3827 -0.1802
v 0.8315 -0.5556 0
v 0.8155 -0.5556 -0.1622
v 0.8256 -0.551 -0.08452
v 0.8592 -0.4913 -0.06705
v 0.823 -0.5556 -0.08597
v 0.8155 -0.5556 -0.1622
v 0.7071 -0.7071 0
v 0.6935 -0.7071 -0.138
v 0.7801 -0.6051 -0.1092
v 0.7498 -0.6396 -0.129
v 0.7232 -0.6702 -0.1439
v 0.8155 0.5556 -0.1622
v 0.9239 0.3827 0
v 0.9061 0.3827 -0.1802
v 0.9063 0.3959 -0.107
v 0.8317 0.5246 -0.1654
v 0.9118 0.3863 -0.1028
v 0.9139 0.3827 -0.1017
v 0.9619 0.1951 -0.1913
v 0.9239 0.3827 0
v 0.9808 0.1951 0
v 0.9743 0.1986 -0.05495
v 0.9401 0.3029 -0.08135
v 0.9754 0.1951 -0.05432
v -0.9808 0 0.1951
v -0.9808 -0.1951 0
v -0.9619 -0.1951 0.1913
v -0.9808 -0.1445 0.05057
v -0.976 -0.1951 0.04864
v -0.9061 -0.3827 0.1802
v -0.9808 -0.1951 0
v -0.9239 -0.3827 0
v -0.9491 -0.2995 0
v -0.9587 -0.2624 0.0169
v -0.9667 -0.2304 0.03393
v -0.9239 -0.3827 0
v -0.9619 -0.1951 -0.1913
v -0.9061 -0.3827 -0.1802
v -0.9306 -0.3495 -0.03382
v -0.9178 -0.3827 -0.06164
v -0.7071 0.7071 0
v -0.8155 0.5556 -0.1622
v -0.8315 0.5556 0
v -0.8174 0.5556 -0.1429
v -0.8058 0.5692 -0.1476
v -0.9239 0.3827 0
v -0.8155 0.5556 -0.1622
v -0.9061 0.3827 -0.1802
v -0.8353 0.524 -0.1326
v -0.8659 0.4704 -0.1126
v -0.9152 0.3827 -0.08821
v -0.9808 0 0.1951
v -1 0 0
v -0.9808 -0.1951 0
v -0.9928 -0.01705 0.05577
v -0.9947 0 0.05393
v -0.9913 -0.03142 0.05703
v -0.9871 -0.07813 0.0531
v -0.9808 -0.1445 0.05057
v -0.9808 0 0.1951
v -0.9808 0.1951 0
v -1 0 0
v -0.9844 0.1587 0
v -0.9947 0 0.05393
v 0.9808 0 -0.1951
v 1 0 0
v 0.9808 -0.1951 0
v 0.9971 0 -0.0298
v 0.9951 -0.02198 -0.02804
v 0.9925 -0.04855 -0.02714
v 0.9808 -0.1698 -0.02531
v 0.9808 0 -0.1951
v 0.9808 0.1951 0
v 1 0 0
v 0.9808 0.147 -0.04805
v 0.9971 0 -0.0298
v -1.11 0.7548 1.099
v -0.9578 0.8023 1.125
v -0.8341 0.8158 1.139
v -1.016 0.08897 1.053
v -1.126 0.2225 0.829
v -1.07 0.337 0.8488
v -0.9527 0.3691 0.9206
v -0.7437 0.3533 1.076
v -0.8093 0.3977 1.012
v -1.035 0.153 0.9427
v -0.9834 0.2489 0.9274
v -0.8466 0.23 1.086
v -0.8694 0.3158 0.9927
v -0.7333 0.738 1.099
v -0.9368 0.5356 0.944
v -0.953 0.6634 0.9886
v -1.077 0.6827 0.992
v -1.105 0.5195 0.8728
v -0.833 0.4933 0.9923
v -0.6526 0.4699 1.1
v -0.6527 0.6296 1.095
v 0.9578 0.6543 -0.173
v 1.111 0.7201 -0.1594
v 1.136 0.4612 -0.07232
v 1.048 0.1946 -0.03806
v 0.9038 0.3836 -0.1039
v -1.091 0.6622 -0.1229
v -1.075 0.531 -0.08419
v -0.9788 0.2171 -0.02213
v -1.076 0.3759 0.003254
v -1.065 0.4527 -0.05662
v -0.9883 0.475 -0.091
v -0.4604 0.4703 -0.1975
v -0.8987 0.3048 -0.07759
v -0.7646 0.6881 -0.1821
v -0.815 0.4685 -0.1215
v -0.6167 0.5588 -0.1736
v 1.33 -0.4533 0.02309
v 1.038 -0.2333 -0.01071
v 1.016 -0.02809 -0.02275
v 0.9377 -0.4131 -0.03554
v -0.9205 -0.3168 -0.04223
v -0.8828 -0.5467 -0.187
v -1.101 -0.6407 0.1623
v -1.026 -0.4303 0.09835
v -0.9071 -0.4487 -0.09369
v -1.081 -0.1571 0.2021
v -1.102 0.1225 0.1656
v -0.9882 -0.2204 0.06258
v -0.9177 -0.552 -0.1387
v -0.809 -0.4188 -0.1504
v 1.075 -1.093 -0.1885
v 1.007 -0.8933 -0.111
v 1.082 -0.6749 -0.03896
v 0.9072 -0.7665 -0.09986
v 0.5999 -0.5711 -0.1524
v 0.7592 -0.5189 -0.09631
v -0.9878 -0.6191 -0.03368
v -1.069 -0.8346 -0.02792
v -1.067 -0.7478 0.05722
v 1.228 0.8202 -0.1806
v 0.8631 1.068 -0.4766
v 0.9876 0.8737 -0.2642
v 0.7957 0.8728 -0.3447
v 1.002 1.141 -0.4761
v 1.169 1.02 -0.3096
v 0.9664 0.9896 -0.3582
v 0.2448 1.104 -0.569
v 0.3332 1.161 -0.6092
v 0.6478 1.138 -0.5836
v 0.07241 1.079 -0.5775
v 0.4836 1.07 -0.533
v 0.7361 0.9857 -0.4558
v 0.639 0.8642 -0.3786
v 0.4605 0.9501 -0.446
v 0.07825 0.9004 -0.4689
v 0.3272 0.8975 -0.4371
v -0.6765 1.118 -0.4276
v -0.2598 1.066 -0.5727
v -0.07135 1.011 -0.5359
v -0.5961 0.8142 -0.2612
v -0.232 0.9329 -0.4741
v -0.9324 1.095 -0.3714
v -0.3619 0.9889 -0.4737
v -0.439 0.8805 -0.3528
v -0.7869 1.088 -0.3788
v -1.067 1.095 -0.3769
v -1.185 0.9834 -0.3051
v -0.8038 0.8798 -0.2416
v -0.9477 0.9814 -0.2824
v -0.895 0.7531 -0.1827
v -1.046 0.8046 -0.1857
v -0.6901 0.9935 -0.3281
v -0.5867 1.072 -0.4239
v -0.5223 0.9761 -0.385
v -0.5144 1.126 -0.5272
v -0.4192 1.076 -0.5352
v -0.1699 0.8215 -0.4277
v 0.2783 0.6179 -0.3299
v -0.03114 -0.03371 -0.2637
v -0.134 0.6838 -0.3845
v 0.1607 0.7678 -0.406
v 0.5273 0.6863 -0.3068
v 0.748 0.7337 -0.2733
v 0.7558 0.5595 -0.1955
v 0.1056 0.4362 -0.3089
v -0.05792 0.2239 -0.283
v -0.07553 0.4503 -0.3238
v -0.000413 0.7531 -0.4129
v -0.3098 -0.7345 -0.3429
v -0.3911 -0.8742 -0.3876
v -0.4999 -1.145 -0.5578
v -0.5288 -0.9918 -0.4253
v -0.3853 -1.014 -0.476
v -0.8738 -0.7748 -0.339
v -0.7955 -0.5702 -0.2229
v -0.6928 -0.7567 -0.306
v -0.1942 -0.885 -0.4626
v -0.8943 -0.6354 -0.2521
v -0.2588 -1.116 -0.5918
v -0.12 -1.042 -0.5671
v -0.6501 -0.9946 -0.4324
v -0.7019 -1.152 -0.5785
v -0.9705 -0.8557 -0.3535
v -0.9755 -0.9476 -0.4545
v -0.8519 -1.003 -0.4932
v -0.9411 -0.7382 -0.2817
v -0.9533 -0.6553 -0.1889
v -1.025 -0.8727 -0.2368
v -0.4633 -0.6812 -0.2763
v -0.6301 -0.5717 -0.2207
v -0.557 -0.8145 -0.3246
v -1.005 -1.053 -0.5477
v -1.048 -1.015 -0.4764
v -1.088 -1.042 -0.3817
v -0.2245 -0.6303 -0.3188
v 0.2691 -0.5981 -0.2869
v 0.1439 -0.6058 -0.3293
v 0.2963 -0.8059 -0.3597
v 0.04864 -0.7274 -0.4056
v 0.1202 -0.8623 -0.4385
v -0.01899 -0.9038 -0.4968
v -0.03131 -1.073 -0.5793
v 0.7346 -0.835 -0.182
v 0.4939 -0.9292 -0.3296
v 0.709 -1.037 -0.2833
v 0.5905 -1.143 -0.3929
v 0.1014 -1.108 -0.561
v -0.05868 -0.6909 -0.3951
v -0.07951 -0.8178 -0.4622
v 0.4274 -0.6705 -0.2476
v 0.2388 -1.01 -0.4607
v 0.4313 -1.113 -0.4413
v 0.8758 -1.058 -0.2263
v -0.2434 -0.4368 -0.2508
v -0.3802 -0.5815 -0.2557
v -0.5158 -0.4841 -0.1987
v 0.2475 -0.4392 -0.2465
v -0.07927 -0.249 -0.2633
v -0.1061 -0.4789 -0.2968
v 0.02585 -0.4256 -0.2886
v 0.01787 -0.5663 -0.3374
v 0.105 -0.2467 -0.2506
v -0.05058 -0.5355 -0.3233
v -0.245 0.6509 -0.3429
v -0.3283 0.7786 -0.36
v -0.35 0.5814 -0.2705
v -0.3531 0.4196 -0.2309
v -0.1988 0.4775 -0.3079
v -0.4651 0.6848 -0.2558
v 0.08991 0.6017 -0.359
v -0.3643 0.2594 -0.1977
v -0.1969 0.2841 -0.2624
v 0.1713 0.1938 -0.2517
v -0.3035 -0.2981 -0.2055
v -0.4026 -0.4298 -0.2057
v -0.1801 0.1044 -0.2483
v 0.3537 0.3994 -0.2501
v 0.4239 0.2413 -0.1941
v 0.747 0.2109 -0.1069
v 0.8017 -0.2119 -0.06213
v 0.4715 -0.4269 -0.1681
v 0.5698 -0.2908 -0.1256
v 0.5461 -0.08534 -0.1325
v 0.4941 0.1158 -0.1606
v 0.7578 0.04578 -0.08672
v 0.6001 0.3506 -0.1765
v -0.1294 -0.02554 -0.2553
v -0.8618 0.1624 -0.06991
v -0.5271 0.2111 -0.1413
v -0.5844 0.3377 -0.1441
v -0.7726 0.276 -0.09988
v -0.8996 0.03933 -0.0379
v -0.8964 -0.1523 -0.03496
v -0.9866 -0.02495 0.04955
v -0.5686 0.04272 -0.1234
v -0.7659 -0.1108 -0.08711
v -0.7644 0.09191 -0.08426
v -0.4573 -0.267 -0.1672
v -0.1863 -0.2294 -0.2383
v -0.835 -0.2696 -0.09506
v -0.6409 -0.2277 -0.1327
v -0.277 -0.1384 -0.2057
v -0.3908 0.001653 -0.1733
v 0.344 -0.09201 -0.1848
v 0.1446 -0.07445 -0.2372
v 0.3441 -0.2454 -0.186
v 0.04864 -0.7274 -0.4056
v -0.05868 -0.6909 -0.3951
v -0.01899 -0.9038 -0.4968
v -0.006595 -0.8715 -0.4801
v -0.02526 -0.8701 -0.4807
v -0.05868 -0.6909 -0.3951
v -0.07951 -0.8178 -0.4622
v -0.01899 -0.9038 -0.4968
v -0.02526 -0.8701 -0.4807
v -0.04403 -0.8682 -0.4825
v -0.2245 -0.6303 -0.3188
v -0.3098 -0.7345 -0.3429
v -0.1942 -0.885 -0.4626
v -0.1966 -0.8649 -0.4512
v -0.2104 -0.864 -0.4458
v -0.6301 -0.5717 -0.2207
v -0.7955 -0.5702 -0.2229
v -0.6928 -0.7567 -0.306
v -0.6692 -0.6872 -0.274
v -0.7845 -0.5703 -0.2227
v -0.809 -0.4188 -0.1504
v -0.7955 -0.5702 -0.2229
v -0.6301 -0.5717 -0.2207
v -0.7966 -0.5582 -0.2171
v -0.7845 -0.5703 -0.2227
v -0.9883 0.475 -0.091
v -0.9788 0.2171 -0.02213
v -0.8987 0.3048 -0.07759
v -0.9673 0.2296 -0.03009
v -0.9246 0.3539 -0.08146
v -0.835 -0.2696 -0.09506
v -0.9071 -0.4487 -0.09369
v -0.809 -0.4188 -0.1504
v -0.8952 -0.419 -0.09392
v -0.882 -0.441 -0.1082
v -0.9205 -0.3168 -0.04223
v -0.9071 -0.4487 -0.09369
v -0.835 -0.2696 -0.09506
v -0.9131 -0.3898 -0.07073
v -0.8952 -0.419 -0.09392
v -0.9071 -0.4487 -0.09369
v -0.9177 -0.552 -0.1387
v -0.809 -0.4188 -0.1504
v -0.8581 -0.479 -0.1451
v -0.882 -0.441 -0.1082
v -1.102 0.1225 0.1656
v -1.081 -0.1571 0.2021
v -0.9866 -0.02495 0.04955
v -0.9928 -0.01705 0.05577
v -0.9913 -0.03142 0.05703
v -0.9866 -0.02495 0.04955
v -1.081 -0.1571 0.2021
v -0.9882 -0.2204 0.06258
v -0.9913 -0.03142 0.05703
v -0.9871 -0.07813 0.0531
v 0.9377 -0.4131 -0.03554
v 0.8017 -0.2119 -0.06213
v 0.7592 -0.5189 -0.09631
v 0.886 -0.4437 -0.05314
v 0.9188 -0.385 -0.03925
v 0.5999 -0.5711 -0.1524
v 0.4274 -0.6705 -0.2476
v 0.7346 -0.835 -0.182
v 0.6004 -0.7632 -0.2107
v 0.6736 -0.7155 -0.1686
v 0.4939 -0.9292 -0.3296
v 0.2963 -0.8059 -0.3597
v 0.4313 -1.113 -0.4413
v 0.3215 -0.8632 -0.3749
v 0.3571 -0.8585 -0.3571
v 0.3743 -0.8545 -0.3478
v -0.07951 -0.8178 -0.4622
v -0.1942 -0.885 -0.4626
v -0.01899 -0.9038 -0.4968
v -0.06456 -0.8688 -0.4793
v -0.09441 -0.8698 -0.4746
v -0.1611 -0.8656 -0.4625
v -0.04403 -0.8682 -0.4825
v -0.05868 -0.6909 -0.3951
v -0.2245 -0.6303 -0.3188
v -0.1942 -0.885 -0.4626
v -0.188 -0.8658 -0.454
v -0.1809 -0.8659 -0.4559
v -0.1966 -0.8649 -0.4512
v -0.05868 -0.6909 -0.3951
v -0.1942 -0.885 -0.4626
v -0.07951 -0.8178 -0.4622
v -0.1809 -0.8659 -0.4559
v -0.1616 -0.8656 -0.4623
v -0.1611 -0.8656 -0.4625
v -0.1699 0.8215 -0.4277
v -0.232 0.9329 -0.4741
v -0.3283 0.7786 -0.36
v -0.2779 0.8593 -0.4197
v -0.2126 0.8656 -0.4412
v -0.1954 0.8673 -0.4468
v -0.3098 -0.7345 -0.3429
v -0.4633 -0.6812 -0.2763
v -0.3911 -0.8742 -0.3876
v -0.3769 -0.8436 -0.3769
v -0.3737 -0.8442 -0.378
v -0.4056 -0.8356 -0.3653
v -0.3098 -0.7345 -0.3429
v -0.3911 -0.8742 -0.3876
v -0.1942 -0.885 -0.4626
v -0.3655 -0.8455 -0.3815
v -0.3737 -0.8442 -0.378
v -0.2573 -0.8607 -0.4276
v -0.2799 -0.8592 -0.4189
v -0.2104 -0.864 -0.4458
v -0.3283 0.7786 -0.36
v -0.439 0.8805 -0.3528
v -0.4651 0.6848 -0.2558
v -0.3974 0.8423 -0.3555
v -0.4455 0.8315 -0.3285
v -0.232 0.9329 -0.4741
v -0.439 0.8805 -0.3528
v -0.3283 0.7786 -0.36
v -0.3974 0.8423 -0.3555
v -0.3812 0.8459 -0.3648
v -0.2798 0.8592 -0.4188
v -0.357 0.8498 -0.378
v -0.2779 0.8593 -0.4197
v -0.3708 0.8482 -0.3708
v -0.4633 -0.6812 -0.2763
v -0.557 -0.8145 -0.3246
v -0.3911 -0.8742 -0.3876
v -0.4938 -0.8001 -0.3299
v -0.5322 -0.7792 -0.3118
v -0.4683 -0.8108 -0.3404
v -0.4194 -0.8315 -0.3605
v -0.4056 -0.8356 -0.3653
v -0.4633 -0.6812 -0.2763
v -0.6301 -0.5717 -0.2207
v -0.557 -0.8145 -0.3246
v -0.5518 -0.7673 -0.3057
v -0.5322 -0.7792 -0.3118
v -0.5756 -0.7529 -0.2982
v -0.6301 -0.5717 -0.2207
v -0.6928 -0.7567 -0.306
v -0.557 -0.8145 -0.3246
v -0.6653 -0.6913 -0.2756
v -0.6474 -0.7071 -0.2817
v -0.6692 -0.6872 -0.274
v -0.5756 -0.7529 -0.2982
v -0.4651 0.6848 -0.2558
v -0.439 0.8805 -0.3528
v -0.5961 0.8142 -0.2612
v -0.5384 0.7897 -0.2732
v -0.5604 0.7789 -0.2597
v -0.4457 0.8315 -0.3284
v -0.4455 0.8315 -0.3285
v -0.4639 0.8251 -0.3184
v -0.4708 0.8227 -0.3146
v -0.5961 0.8142 -0.2612
v -0.6167 0.5588 -0.1736
v -0.4651 0.6848 -0.2558
v -0.5922 0.7614 -0.2453
v -0.5604 0.7789 -0.2597
v -0.6008 0.7556 -0.2411
v -0.7646 0.6881 -0.1821
v -0.815 0.4685 -0.1215
v -0.6167 0.5588 -0.1736
v -0.785 0.5934 -0.1562
v -0.7259 0.6543 -0.1798
v -0.7868 0.5914 -0.1554
v -0.6167 0.5588 -0.1736
v -0.5961 0.8142 -0.2612
v -0.7646 0.6881 -0.1821
v -0.6719 0.7071 -0.2092
v -0.626 0.7384 -0.2298
v -0.7136 0.6663 -0.1865
v -0.7259 0.6543 -0.1798
v -0.6008 0.7556 -0.2411
v -0.9177 -0.552 -0.1387
v -0.8828 -0.5467 -0.187
v -0.809 -0.4188 -0.1504
v -0.8497 -0.4894 -0.1706
v -0.8504 -0.489 -0.1692
v -0.8581 -0.479 -0.1451
v -0.809 -0.4188 -0.1504
v -0.8828 -0.5467 -0.187
v -0.7955 -0.5702 -0.2229
v -0.8497 -0.4894 -0.1706
v -0.7995 -0.5556 -0.2151
v -0.7966 -0.5582 -0.2171
v -0.815 0.4685 -0.1215
v -0.9883 0.475 -0.091
v -0.8987 0.3048 -0.07759
v -0.9152 0.3827 -0.08821
v -0.8659 0.4704 -0.1126
v -0.9246 0.3539 -0.08146
v 0.1202 -0.8623 -0.4385
v 0.1014 -1.108 -0.561
v 0.2388 -1.01 -0.4607
v 0.1285 -0.8804 -0.4437
v 0.1188 -0.88 -0.4473
v 0.1349 -0.8806 -0.4412
v 0.1202 -0.8623 -0.4385
v -0.01899 -0.9038 -0.4968
v 0.1014 -1.108 -0.561
v 0.1188 -0.88 -0.4473
v 0.09056 -0.8803 -0.4553
v 0.06597 -0.8784 -0.4612
v 0.04864 -0.7274 -0.4056
v -0.01899 -0.9038 -0.4968
v 0.1202 -0.8623 -0.4385
v 0 -0.8726 -0.4786
v 0.03579 -0.8758 -0.4692
v 0.06597 -0.8784 -0.4612
v -0.006595 -0.8715 -0.4801
v -0.1699 0.8215 -0.4277
v 0.07825 0.9004 -0.4689
v -0.232 0.9329 -0.4741
v 0.01996 0.8819 -0.4593
v 0 0.883 -0.4592
v -0.1268 0.8761 -0.4526
v -0.1855 0.8693 -0.4479
v -0.04972 0.8815 -0.4571
v -0.1954 0.8673 -0.4468
v -0.09058 0.8802 -0.4554
v -0.1699 0.8215 -0.4277
v -0.000413 0.7531 -0.4129
v 0.07825 0.9004 -0.4689
v 0.01996 0.8819 -0.4593
v 0.0518 0.8797 -0.4602
v 0.06664 0.8787 -0.4607
v -0.000413 0.7531 -0.4129
v 0.1607 0.7678 -0.406
v 0.07825 0.9004 -0.4689
v 0.09122 0.8785 -0.4586
v 0.09193 0.8784 -0.4585
v 0.06664 0.8787 -0.4607
v 0.1607 0.7678 -0.406
v 0.3272 0.8975 -0.4371
v 0.07825 0.9004 -0.4689
v 0.149 0.8741 -0.4497
v 0.09193 0.8784 -0.4585
v 0.2607 0.8588 -0.4299
v 0.184 0.8714 -0.4443
v 0.2746 0.8565 -0.4272
v 0.2963 -0.8059 -0.3597
v 0.1202 -0.8623 -0.4385
v 0.2388 -1.01 -0.4607
v 0.1772 -0.8809 -0.4279
v 0.2126 -0.8778 -0.4154
v 0.2652 -0.8733 -0.3969
v 0.278 -0.871 -0.3919
v 0.1349 -0.8806 -0.4412
v 0.2783 0.6179 -0.3299
v 0.3272 0.8975 -0.4371
v 0.1607 0.7678 -0.406
v 0.3183 0.8466 -0.4176
v 0.3006 0.8509 -0.4216
v 0.2842 0.855 -0.4254
v 0.2746 0.8565 -0.4272
v 0.2783 0.6179 -0.3299
v 0.5273 0.6863 -0.3068
v 0.3272 0.8975 -0.4371
v 0.3882 0.8315 -0.3967
v 0.3183 0.8466 -0.4176
v 0.3904 0.8308 -0.3959
v 0.2963 -0.8059 -0.3597
v 0.2388 -1.01 -0.4607
v 0.4313 -1.113 -0.4413
v 0.2935 -0.8682 -0.3858
v 0.278 -0.871 -0.3919
v 0.3215 -0.8632 -0.3749
v 0.5273 0.6863 -0.3068
v 0.4605 0.9501 -0.446
v 0.3272 0.8975 -0.4371
v 0.3999 0.827 -0.3928
v 0.3947 0.8293 -0.3947
v 0.3904 0.8308 -0.3959
v 0.5036 0.78 -0.3563
v 0.4274 -0.6705 -0.2476
v 0.2963 -0.8059 -0.3597
v 0.4939 -0.9292 -0.3296
v 0.4532 -0.8357 -0.3069
v 0.4566 -0.8349 -0.3051
v 0.4686 -0.8307 -0.2984
v 0.4669 -0.8315 -0.2994
v 0.3743 -0.8545 -0.3478
v 0.5273 0.6863 -0.3068
v 0.639 0.8642 -0.3786
v 0.4605 0.9501 -0.446
v 0.5228 0.7714 -0.3493
v 0.5656 0.7472 -0.3314
v 0.5036 0.78 -0.3563
v 0.5273 0.6863 -0.3068
v 0.748 0.7337 -0.2733
v 0.639 0.8642 -0.3786
v 0.5656 0.7472 -0.3314
v 0.6387 0.7102 -0.2899
v 0.7558 0.5595 -0.1955
v 0.748 0.7337 -0.2733
v 0.5273 0.6863 -0.3068
v 0.6444 0.7071 -0.2872
v 0.6387 0.7102 -0.2899
v 0.7536 0.6085 -0.2174
v 0.7322 0.6286 -0.2314
v 0.6649 0.6917 -0.2754
v 0.7346 -0.835 -0.182
v 0.4274 -0.6705 -0.2476
v 0.4939 -0.9292 -0.3296
v 0.4686 -0.8307 -0.2984
v 0.5666 -0.7841 -0.2347
v 0.6004 -0.7632 -0.2107
v 0.7592 -0.5189 -0.09631
v 0.5999 -0.5711 -0.1524
v 0.7346 -0.835 -0.182
v 0.7008 -0.6924 -0.1555
v 0.6859 -0.7071 -0.1632
v 0.7232 -0.6702 -0.1439
v 0.7498 -0.6396 -0.129
v 0.6736 -0.7155 -0.1686
v 0.9038 0.3836 -0.1039
v 0.9578 0.6543 -0.173
v 0.7558 0.5595 -0.1955
v 0.81 0.5556 -0.1805
v 0.7896 0.5754 -0.1917
v 0.9063 0.3959 -0.107
v 0.8317 0.5246 -0.1654
v 0.7558 0.5595 -0.1955
v 0.9578 0.6543 -0.173
v 0.748 0.7337 -0.2733
v 0.7536 0.6085 -0.2174
v 0.7896 0.5754 -0.1917
v 0.8017 -0.2119 -0.06213
v 0.9377 -0.4131 -0.03554
v 1.038 -0.2333 -0.01071
v 0.9686 -0.227 -0.02588
v 0.92 -0.3827 -0.03893
v 0.9188 -0.385 -0.03925
v 0.9377 -0.4131 -0.03554
v 0.7592 -0.5189 -0.09631
v 1.082 -0.6749 -0.03896
v 0.8256 -0.551 -0.08452
v 0.8592 -0.4913 -0.06705
v 0.886 -0.4437 -0.05314
v 1.082 -0.6749 -0.03896
v 0.7592 -0.5189 -0.09631
v 0.9072 -0.7665 -0.09986
v 0.823 -0.5556 -0.08597
v 0.8256 -0.551 -0.08452
v 0.7983 -0.5843 -0.09725
v 0.7592 -0.5189 -0.09631
v 0.7346 -0.835 -0.182
v 0.9072 -0.7665 -0.09986
v 0.7801 -0.6051 -0.1092
v 0.7498 -0.6396 -0.129
v 0.7983 -0.5843 -0.09725
v 0.9038 0.3836 -0.1039
v 1.136 0.4612 -0.07232
v 0.9578 0.6543 -0.173
v 0.9063 0.3959 -0.107
v 0.9118 0.3863 -0.1028
v 0.9038 0.3836 -0.1039
v 1.048 0.1946 -0.03806
v 1.136 0.4612 -0.07232
v 0.9139 0.3827 -0.1017
v 0.9118 0.3863 -0.1028
v 0.9209 0.3612 -0.0961
v -0.9788 0.2171 -0.02213
v -1.102 0.1225 0.1656
v -0.9866 -0.02495 0.04955
v -0.9844 0.1587 0
v -0.9947 0 0.05393
v -0.9928 -0.01705 0.05577
v -0.9796 0.192 -0.0147
v -0.9205 -0.3168 -0.04223
v -0.9882 -0.2204 0.06258
v -1.026 -0.4303 0.09835
v -0.9491 -0.2995 0
v -0.9587 -0.2624 0.0169
v -0.9366 -0.3341 -0.02084
v -0.9205 -0.3168 -0.04223
v -1.026 -0.4303 0.09835
v -0.9071 -0.4487 -0.09369
v -0.9306 -0.3495 -0.03382
v -0.9178 -0.3827 -0.06164
v -0.9366 -0.3341 -0.02084
v -0.9131 -0.3898 -0.07073
v -0.815 0.4685 -0.1215
v -0.7646 0.6881 -0.1821
v -0.895 0.7531 -0.1827
v -0.8174 0.5556 -0.1429
v -0.8058 0.5692 -0.1476
v -0.7868 0.5914 -0.1554
v -0.8321 0.5295 -0.1346
v -0.895 0.7531 -0.1827
v -0.9883 0.475 -0.091
v -0.815 0.4685 -0.1215
v -0.8353 0.524 -0.1326
v -0.8659 0.4704 -0.1126
v -0.8321 0.5295 -0.1346
v 1.048 0.1946 -0.03806
v 0.7578 0.04578 -0.08672
v 1.016 -0.02809 -0.02275
v 0.9808 0.147 -0.04805
v 0.9971 0 -0.0298
v 0.9951 -0.02198 -0.02804
v 0.9794 0.1594 -0.04958
v 0.747 0.2109 -0.1069
v 1.048 0.1946 -0.03806
v 0.9038 0.3836 -0.1039
v 0.9743 0.1986 -0.05495
v 0.9401 0.3029 -0.08135
v 0.9209 0.3612 -0.0961
v 0.747 0.2109 -0.1069
v 0.7578 0.04578 -0.08672
v 1.048 0.1946 -0.03806
v 0.9754 0.1951 -0.05432
v 0.9743 0.1986 -0.05495
v 0.9794 0.1594 -0.04958
v 1.016 -0.02809 -0.02275
v 0.8017 -0.2119 -0.06213
v 1.038 -0.2333 -0.01071
v 0.9783 -0.1951 -0.02493
v 0.9808 -0.1698 -0.02531
v 0.9686 -0.227 -0.02588
v 0.9701 -0.2219 -0.02573
v 0.9925 -0.04855 -0.02714
v -0.9788 0.2171 -0.02213
v -0.9866 -0.02495 0.04955
v -0.8996 0.03933 -0.0379
v -0.9792 0.1951 -0.01589
v -0.9747 0.2077 -0.02296
v -0.9796 0.192 -0.0147
v -0.9866 -0.02495 0.04955
v -0.9882 -0.2204 0.06258
v -0.8964 -0.1523 -0.03496
v -0.9808 -0.1445 0.05057
v -0.976 -0.1951 0.04864
v -0.9722 -0.2085 0.04558
v -0.9871 -0.07813 0.0531
v -0.8964 -0.1523 -0.03496
v -0.9882 -0.2204 0.06258
v -0.9205 -0.3168 -0.04223
v -0.9667 -0.2304 0.03393
v -0.9587 -0.2624 0.0169
v -0.9722 -0.2085 0.04558
v -0.8618 0.1624 -0.06991
v -0.9788 0.2171 -0.02213
v -0.8996 0.03933 -0.0379
v -0.9747 0.2077 -0.02296
v -0.9726 0.2141 -0.02469
v -0.9788 0.2171 -0.02213
v -0.8618 0.1624 -0.06991
v -0.8987 0.3048 -0.07759
v -0.9726 0.2141 -0.02469
v -0.9691 0.2246 -0.02832
v -0.9673 0.2296 -0.03009
v 1.016 -0.02809 -0.02275
v 0.7578 0.04578 -0.08672
v 0.8017 -0.2119 -0.06213
v 0.9925 -0.04855 -0.02714
v 0.9951 -0.02198 -0.02804

f 997 998 1003
f 995 994 991
f 991 992 995
f 994 993 991
f 988 989 986
f 981 982 984
f 984 983 981
f 975 977 978
f 978 979 975
f 973 972 970
f 963 967 966
f 966 968 963
f 959 961 958
f 958 960 959
f 961 962 958
f 950 953 954
f 954 955 950
f 947 949 944
f 944 948 947
f 949 946 944
f 938 943 941
f 941 942 938
f 933 937 936
f 936 935 933
f 931 930 926
f 926 932 931
f 930 929 926
f 921 924 925
f 925 923 921
f 920 918 915
f 915 916 920
f 918 919 915
f 912 913 910
f 910 911 912
f 913 914 910
f 907 906 904
f 899 900 902
f 902 901 899
f 892 897 896
f 896 895 892
f 886 890 889
f 889 891 886
f 885 884 881
f 877 878 880
f 880 879 877
f 873 874 871
f 871 872 873
f 874 875 871
f 869 867 865
f 865 866 869
f 867 868 865
f 863 862 859
f 853 858 856
f 856 857 853
f 847 849 850
f 850 851 847
f 847 848 849
f 851 852 847
f 844 843 840
f 840 841 844
f 843 845 840
f 838 839 836
f 832 833 830
f 830 831 832
f 833 834 830
f 826 827 824
f 824 825 826
f 827 828 824
f 818 819 822
f 822 821 818
f 813 817 816
f 816 815 813
f 810 808 806
f 806 811 810
f 808 809 806
f 801 802 804
f 804 803 801
f 796 797 799
f 799 798 796
f 789 792 793
f 793 794 789
f 784 788 787
f 787 786 784
f 782 781 779
f 779 780 782
f 781 783 779
f 776 777 773
f 767 771 770
f 770 772 767
f 763 764 766
f 766 765 763
f 757 761 760
f 760 759 757
f 755 756 752
f 748 751 750
f 750 749 748
f 745 743 740
f 740 741 745
f 743 744 740
f 739 738 734
f 734 735 739
f 738 737 734
f 732 733 731
f 725 728 727
f 727 726 725
f 718 719 721
f 721 722 718
f 717 716 713
f 711 712 707
f 707 710 711
f 712 709 707
f 705 704 701
f 701 702 705
f 704 706 701
f 697 700 698
f 698 699 697
f 694 693 690
f 690 691 694
f 693 692 690
f 684 687 688
f 688 686 684
f 683 682 680
f 674 675 677
f 677 678 674
f 44 59 60
f 52 51 66
f 51 50 65
f 50 49 64
f 48 63 64
f 48 47 62
f 46 61 62
f 34 49 50
f 33 48 49
f 32 47 48
f 31 46 47
f 30 45 46
f 37 52 53
f 29 44 45
f 36 51 52
f 28 43 44
f 36 35 50
f 15 30 31
f 22 37 38
f 15 14 29
f 21 36 37
f 13 28 29
f 20 35 36
f 19 34 35
f 18 33 34
f 18 17 32
f 17 16 31
f 6 16 17
f 5 15 16
f 9 22 23
f 4 14 15
f 9 8 21
f 3 13 14
f 479 20 21
f 478 19 20
f 477 18 19
f 477 7 17
f 468 6 7
f 467 5 6
f 473 10 474
f 466 4 5
f 472 9 473
f 465 3 4
f 471 8 472
f 470 479 471
f 469 478 470
f 469 7 477
f 456 472 457
f 455 471 456
f 454 470 455
f 454 468 469
f 453 467 468
f 452 466 467
f 459 473 474
f 450 466 451
f 457 473 458
f 449 465 450
f 438 452 453
f 437 451 452
f 444 458 459
f 436 450 451
f 442 458 443
f 434 450 435
f 441 457 442
f 440 456 441
f 439 455 440
f 439 453 454
f 425 441 426
f 424 440 425
f 424 438 439
f 423 437 438
f 422 436 437
f 429 443 444
f 420 436 421
f 427 443 428
f 419 435 420
f 426 442 427
f 407 421 422
f 405 421 406
f 412 428 413
f 411 427 412
f 410 426 411
f 409 425 410
f 409 423 424
f 408 422 423
f 394 410 395
f 394 408 409
f 393 407 408
f 392 406 407
f 391 405 406
f 396 412 397
f 396 410 411
f 381 395 396
f 379 395 380
f 379 393 394
f 378 392 393
f 377 391 392
f 364 380 365
f 364 378 379
f 95 111 96
f 95 109 110
f 93 109 94
f 93 107 108
f 92 106 107
f 90 106 91
f 77 91 92
f 75 91 76
f 74 90 75
f 81 97 82
f 80 96 81
f 79 95 80
f 78 94 79
f 78 92 93
f 65 79 80
f 63 79 64
f 479 21 8
f 478 20 479
f 477 19 478
f 477 17 18
f 3 14 4
f 9 21 22
f 4 15 5
f 9 23 10
f 5 16 6
f 6 17 7
f 17 31 32
f 18 32 33
f 18 34 19
f 19 35 20
f 20 36 21
f 13 29 14
f 21 37 22
f 15 29 30
f 22 38 23
f 15 31 16
f 36 50 51
f 28 44 29
f 36 52 37
f 29 45 30
f 37 53 38
f 30 46 31
f 31 47 32
f 32 48 33
f 33 49 34
f 34 50 35
f 46 62 47
f 48 62 63
f 48 64 49
f 50 64 65
f 51 65 66
f 43 59 44
f 52 66 67
f 44 60 45
f 53 67 68
f 45 61 46
f 65 81 66
f 66 82 67
f 60 74 75
f 68 82 83
f 60 76 61
f 61 77 62
f 63 77 78
f 53 52 67
f 45 60 61
f 65 80 81
f 66 81 82
f 60 59 74
f 68 67 82
f 60 75 76
f 61 76 77
f 63 62 77
f 63 78 79
f 65 64 79
f 78 77 92
f 78 93 94
f 79 94 95
f 80 95 96
f 81 96 97
f 83 82 97
f 75 90 91
f 77 76 91
f 92 91 106
f 93 92 107
f 93 108 109
f 95 94 109
f 95 110 111
f 364 379 380
f 377 376 391
f 378 377 392
f 379 378 393
f 379 394 395
f 381 380 395
f 381 396 397
f 396 395 410
f 396 411 412
f 397 412 413
f 391 390 405
f 392 391 406
f 393 392 407
f 394 393 408
f 394 409 410
f 408 407 422
f 409 408 423
f 409 424 425
f 410 425 426
f 411 426 427
f 412 427 428
f 405 420 421
f 407 406 421
f 426 441 442
f 419 434 435
f 427 442 443
f 420 435 436
f 429 428 443
f 422 421 436
f 423 422 437
f 424 423 438
f 424 439 440
f 425 440 441
f 439 438 453
f 439 454 455
f 440 455 456
f 441 456 457
f 434 449 450
f 442 457 458
f 436 435 450
f 444 443 458
f 437 436 451
f 438 437 452
f 449 464 465
f 457 472 473
f 450 465 466
f 459 458 473
f 452 451 466
f 453 452 467
f 454 453 468
f 454 469 470
f 455 470 471
f 456 471 472
f 469 468 7
f 469 477 478
f 470 478 479
f 471 479 8
f 465 464 3
f 472 8 9
f 466 465 4
f 473 9 10
f 467 466 5
f 468 467 6
f 489 490 483
f 483 484 486
f 487 488 489
f 483 486 487
f 487 489 483
f 494 495 491
f 499 500 498
f 504 506 501
f 501 502 505
f 505 504 501
f 511 510 507
f 507 508 513
f 512 511 507
f 507 513 512
f 518 517 516
f 516 519 518
f 523 524 520
f 529 528 525
f 525 526 529
f 534 533 531
f 531 532 534
f 539 538 536
f 536 537 539
f 543 544 542
f 548 550 546
f 546 549 548
f 554 556 553
f 553 555 554
f 560 561 559
f 566 565 563
f 563 564 566
f 570 572 568
f 568 573 574
f 571 570 568
f 568 574 571
f 579 580 577
f 577 578 579
f 586 583 581
f 581 585 584
f 584 586 581
f 591 592 589
f 589 593 590
f 590 591 589
f 598 599 596
f 596 597 598
f 604 603 602
f 602 605 604
f 611 613 607
f 607 614 609
f 609 610 612
f 612 611 607
f 607 609 612
f 619 618 616
f 616 617 620
f 620 619 616
f 625 624 623
f 623 626 625
f 630 632 627
f 627 628 631
f 631 630 627
f 637 638 633
f 633 636 637
f 642 645 639
f 639 644 643
f 643 642 639
f 649 650 646
f 646 647 649
f 655 654 651
f 651 652 656
f 656 655 651
f 661 659 657
f 657 660 661
f 665 668 663
f 663 667 666
f 666 665 663
f 673 672 669
f 1008 1007 1006
f 997 1003 1002
f 999 1000 997
f 1002 1001 999
f 1002 999 997
f 1019 1020 1016
f 1013 1014 1009
f 1009 1012 1013
f 1014 1015 1009
f 1660 1661 1662
f 1649 1646 1647
f 1620 1623 1621
f 1621 1622 1620
f 1615 1614 1611
f 1611 1616 1615
f 1614 1617 1611
f 1607 1608 1604
f 1604 1609 1607
f 1608 1610 1604
f 1598 1602 1601
f 1601 1603 1598
f 1585 1590 1588
f 1588 1589 1585
f 1584 1583 1580
f 1574 1578 1577
f 1577 1579 1574
f 1569 1573 1571
f 1571 1572 1569
f 1563 1565 1566
f 1566 1567 1563
f 1556 1561 1560
f 1555 1554 1551
f 1548 1544 1550
f 1550 1547 1548
f 1544 1549 1550
f 1548 1546 1544
f 1536 1543 1539
f 1539 1541 1536
f 1543 1540 1539
f 1536 1537 1543
f 1541 1542 1536
f 1531 1533 1534
f 1534 1535 1531
f 1522 1528 1525
f 1525 1526 1522
f 1528 1529 1525
f 1522 1527 1528
f 1526 1524 1522
f 1521 1520 1517
f 1511 1515 1514
f 1514 1516 1511
f 1510 1506 1509
f 1196 1177 1176
f 1175 1196 1176
f 1202 1178 1171
f 1120 1179 1183
f 1202 1171 1076
f 1226 1120 1183
f 1179 1220 1175
f 1220 1179 1120
f 1053 1188 1187
f 1190 1053 1187
f 1057 1053 1190
f 1056 1211 1057
f 1207 1046 1125
f 1121 1129 1118
f 1185 1121 1118
f 1185 1118 1186
f 1119 1126 1198
f 1129 1121 1128
f 1198 1123 1119
f 1194 1198 1126
f 1127 1120 1194
f 1191 1119 1122
f 1185 1189 1121
f 1128 1193 1127
f 1191 1126 1119
f 1128 1126 1191
f 1127 1208 1120
f 1207 1125 1123
f 1128 1127 1126
f 1198 1207 1123
f 1189 1128 1121
f 1189 1193 1128
f 1191 1122 1129
f 1127 1194 1126
f 1191 1129 1128
f 1186 1190 1187
f 1185 1188 1189
f 1187 1188 1185
f 1185 1186 1187
f 1183 1179 1181
f 1180 1175 1156
f 1184 1180 1169
f 1181 1180 1184
f 1179 1175 1180
f 1180 1156 1169
f 1181 1184 1182
f 1182 1184 1169
f 1181 1182 1158
f 1178 1183 1181
f 1182 1169 1160
f 1158 1182 1160
f 1178 1181 1158
f 1179 1180 1181
f 1178 1157 1171
f 1157 1158 1159
f 1158 1160 1161
f 1159 1158 1161
f 1171 1157 1159
f 1175 1176 1156
f 1177 1151 1150
f 1176 1150 1130
f 1156 1176 1130
f 1176 1177 1150
f 1178 1158 1157
f 1232 1231 1228
f 1228 1229 1232
f 1237 1236 1233
f 1233 1234 1237
f 1242 1241 1238
f 1238 1239 1242
f 1247 1246 1243
f 1252 1250 1248
f 1248 1251 1252
f 1257 1256 1255
f 1262 1260 1258
f 1258 1261 1262
f 1267 1265 1263
f 1263 1266 1267
f 1272 1271 1270
f 1286 1287 1284
f 1284 1285 1286
f 1291 1292 1288
f 1288 1289 1291
f 1297 1298 1294
f 1294 1296 1297
f 1302 1305 1299
f 1299 1304 1303
f 1303 1302 1299
f 1309 1310 1306
f 1306 1307 1311
f 1311 1309 1306
f 1317 1314 1312
f 1312 1315 1316
f 1316 1317 1312
f 1321 1320 1318
f 1318 1323 1322
f 1322 1321 1318
f 1327 1328 1324
f 1324 1325 1329
f 1329 1327 1324
f 1335 1337 1330
f 1330 1334 1333
f 1333 1336 1335
f 1335 1330 1333
f 1342 1340 1338
f 1338 1341 1342
f 1347 1346 1345
f 1345 1350 1348
f 1349 1351 1347
f 1347 1345 1348
f 1348 1349 1347
f 1358 1359 1352
f 1352 1356 1355
f 1357 1358 1352
f 1352 1355 1357
f 1363 1364 1360
f 1360 1361 1365
f 1365 1363 1360
f 1370 1372 1366
f 1366 1371 1369
f 1369 1370 1366
f 1376 1377 1373
f 1373 1379 1378
f 1380 1381 1376
f 1376 1373 1378
f 1378 1380 1376
f 1385 1387 1383
f 1383 1384 1386
f 1386 1385 1383
f 1391 1393 1389
f 1389 1390 1392
f 1392 1391 1389
f 1399 1400 1394
f 1394 1401 1398
f 1398 1397 1399
f 1399 1394 1398
f 1406 1405 1404
f 1404 1407 1406
f 1412 1413 1408
f 1408 1411 1412
f 1419 1416 1414
f 1414 1418 1417
f 1417 1419 1414
f 1423 1425 1420
f 1420 1424 1423
f 1430 1429 1426
f 1426 1431 1430
f 1437 1434 1432
f 1432 1438 1435
f 1436 1437 1432
f 1432 1435 1436
f 1445 1447 1439
f 1439 1442 1443
f 1446 1448 1444
f 1444 1445 1439
f 1439 1443 1446
f 1446 1444 1439
f 1453 1452 1449
f 1449 1450 1454
f 1454 1453 1449
f 1458 1460 1455
f 1455 1456 1459
f 1459 1458 1455
f 1464 1465 1461
f 1461 1468 1466
f 1466 1467 1464
f 1464 1461 1466
f 1474 1475 1469
f 1469 1470 1476
f 1476 1472 1473
f 1473 1474 1469
f 1469 1476 1473
f 1483 1479 1477
f 1477 1480 1481
f 1481 1482 1483
f 1483 1477 1481
f 1487 1488 1484
f 1484 1485 1489
f 1489 1487 1484
f 1493 1495 1490
f 1490 1494 1493
f 1500 1501 1496
f 1496 1502 1499
f 1499 1500 1496
f 1509 1508 1503
f 1503 1504 1510
f 1506 1507 1509
f 1509 1503 1510
f 1188 1192 1189
f 1192 1193 1189
f 1193 1197 1127
f 1197 1208 1127
f 1056 1212 1211
f 1057 1211 1053
f 1210 1216 1192
f 1217 1221 1222
f 1218 1217 1216
f 1222 1221 1071
f 1208 1220 1120
f 1208 1223 1220
f 1219 1196 1195
f 1223 1208 1197
f 1220 1195 1175
f 1662 1659 1657
f 1652 1653 1655
f 1213 1215 1214
f 1218 1213 1214
f 1218 1214 1217
f 1219 1177 1196
f 1216 1222 1224
f 1224 1222 1219
f 1216 1224 1192
f 1218 1210 1211
f 1212 1218 1211
f 1222 1071 1151
f 1224 1219 1223
f 1219 1222 1177
f 1216 1217 1222
f 1223 1195 1220
f 1219 1195 1223
f 1195 1196 1175
f 1214 1062 1221
f 1673 1672 1670
f 1214 1221 1217
f 1197 1224 1223
f 1662 1657 1660
f 1657 1663 1660
f 1655 1654 1652
f 1654 1656 1652
f 1594 1595 1593
f 1593 1597 1594
f 1177 1222 1151
f 1637 1638 1642
f 1628 1627 1625
f 1200 1046 1207
f 1199 1207 1198
f 1207 1205 1200
f 1200 1205 1206
f 1201 1204 1203
f 1206 1205 1204
f 1647 1650 1644
f 1636 1633 1631
f 1560 1559 1556
f 1199 1205 1207
f 1203 1227 1202
f 1205 1225 1204
f 1203 1225 1227
f 1204 1225 1203
f 1227 1178 1202
f 1205 1194 1225
f 1227 1226 1183
f 1227 1183 1178
f 1206 1204 1201
f 1682 1683 1684
f 1201 1203 1077
f 1203 1076 1077
f 1203 1202 1076
f 1225 1226 1227
f 1194 1226 1225
f 1054 1209 1212
f 1224 1197 1193
f 1211 1188 1053
f 1218 1216 1210
f 1211 1210 1188
f 1209 1213 1218
f 1209 1218 1212
f 1192 1224 1193
f 1188 1210 1192
f 1056 1054 1212
f 1120 1226 1194
f 1199 1194 1205
f 1198 1194 1199
f 1276 1277 1275
f 1281 1282 1278
f 1595 1596 1593
f 1684 1685 1682
f 1631 1634 1635
f 1625 1629 1628
f 1627 1630 1625
f 1635 1636 1631
f 1640 1641 1637
f 1642 1640 1637
f 1644 1648 1649
f 1647 1644 1649
f 1668 1666 1664
f 1664 1669 1667
f 1667 1668 1664
f 1670 1674 1673
f 1680 1679 1676
f 1679 1678 1676
f 1676 1677 1680
